<?xml version="1.0" encoding="utf-8"?>
<!-- Generator: Adobe Illustrator 26.1.0, SVG Export Plug-In . SVG Version: 6.00 Build 0)  -->
<svg version="1.1" id="Layer_1" xmlns="http://www.w3.org/2000/svg" xmlns:xlink="http://www.w3.org/1999/xlink" x="0px" y="0px"
	 viewBox="0 0 1000 1000" enable-background="new 0 0 1000 1000" xml:space="preserve">
<g>
	<g>
		<g>
			
				<radialGradient id="SVGID_1_" cx="1010.0317" cy="648.8622" r="445.3288" fx="1392.3479" fy="647.5929" gradientTransform="matrix(0.8377 -0.5462 -1.2737 -1.9536 499.7894 2306.623)" gradientUnits="userSpaceOnUse">
				<stop  offset="3.745849e-02" style="stop-color:#D51E69"/>
				<stop  offset="0.1445" style="stop-color:#B41E7C"/>
				<stop  offset="0.2727" style="stop-color:#921D90"/>
				<stop  offset="0.3423" style="stop-color:#851D97"/>
				<stop  offset="0.4122" style="stop-color:#7C209D"/>
				<stop  offset="0.526" style="stop-color:#6426AE"/>
				<stop  offset="0.6508" style="stop-color:#4230C5"/>
				<stop  offset="0.7123" style="stop-color:#3C39CC"/>
				<stop  offset="0.8102" style="stop-color:#2A50E0"/>
				<stop  offset="0.8792" style="stop-color:#1B64F2"/>
			</radialGradient>
			<polygon fill="url(#SVGID_1_)" points="852.1,296.7 852.1,703.3 500,906.6 147.9,703.3 147.9,296.7 500,93.4 			"/>
			
				<radialGradient id="SVGID_00000024683511004241235780000008622429949610447796_" cx="1014.4863" cy="652.0038" r="547.4185" fx="1484.4468" fy="650.4435" gradientTransform="matrix(0.8377 -0.5462 -1.2737 -1.9536 504.2101 2311.8242)" gradientUnits="userSpaceOnUse">
				<stop  offset="3.745849e-02" style="stop-color:#D51E69"/>
				<stop  offset="0.1445" style="stop-color:#B41E7C"/>
				<stop  offset="0.2727" style="stop-color:#921D90"/>
				<stop  offset="0.3423" style="stop-color:#851D97"/>
				<stop  offset="0.4122" style="stop-color:#7C209D"/>
				<stop  offset="0.526" style="stop-color:#6426AE"/>
				<stop  offset="0.6508" style="stop-color:#4230C5"/>
				<stop  offset="0.7123" style="stop-color:#3C39CC"/>
				<stop  offset="0.8102" style="stop-color:#2A50E0"/>
				<stop  offset="0.8792" style="stop-color:#1B64F2"/>
			</radialGradient>
			<path fill="url(#SVGID_00000024683511004241235780000008622429949610447796_)" d="M500.2,0L67.3,249.9V749l432.2,251l432.7-250.9
				l0.5-499.2L500.2,0z M892.9,726.9L500,953.7L107.1,726.8V273.2L500,46.3l392.9,226.9V726.9L892.9,726.9z"/>
		</g>
		<g opacity="0.2">
			<polygon fill="#FFFFFF" points="852.1,296.7 852.1,703.3 500,906.6 147.9,703.3 147.9,296.7 500,93.4 			"/>
		</g>
	</g>
	<path fill="#FFFFFF" d="M500,953.7L107.1,726.9V273.2L500,46.3l392.9,226.9v453.7L500,953.7z M147.9,703.3L500,906.6l352.1-203.3
		V296.7L500,93.4L147.9,296.7V703.3z"/>
</g>
<path fill="#FFFFFF" d="M673.9,357.6l-158.6-66.1c-4-1.7-10.9-3-15.2-3c-4.4,0-11.2,1.4-15.3,3l-158.6,66.1
	c-14.8,6.1-24.5,20.6-24.5,35.9c0,213.3,156.3,318,197.6,318c43,0,199-105.9,199-318C698.3,378.2,688.6,363.7,673.9,357.6z
	 M519.8,502v57.5c0,10.9-8.9,19.8-19.8,19.8s-19.8-8.9-19.8-19.8V502c-15.6-7.4-26.4-23.2-26.4-41.6c0-25.6,20.7-46.3,46.3-46.3
	s46.3,20.7,46.3,46.3C546.3,478.8,535.4,494.5,519.8,502z"/>
</svg>
